<svg xmlns="http://www.w3.org/2000/svg" viewBox="0 0 512 512" role="img" aria-label="拾壹博客">
  <defs>
    <linearGradient id="topSheen" x1="0" y1="0" x2="0" y2="1">
      <stop offset="0%" stop-color="#F7E08A"/>
      <stop offset="100%" stop-color="#E8C547"/>
    </linearGradient>
    <linearGradient id="rightFace" x1="0" y1="0" x2="1" y2="0">
      <stop offset="0%" stop-color="#D4AF37"/>
      <stop offset="100%" stop-color="#9A7B18"/>
    </linearGradient>
    <linearGradient id="bottomFace" x1="0" y1="0" x2="0" y2="1">
      <stop offset="0%" stop-color="#9A7B18"/>
      <stop offset="100%" stop-color="#6E5712"/>
    </linearGradient>
  </defs>

  <rect width="512" height="512" rx="96" fill="#F8F7F2"/>
  <rect x="28" y="28" width="456" height="456" rx="84" fill="none" stroke="rgba(17,24,39,0.14)" stroke-width="10"/>

  <rect x="144" y="152" width="252" height="252" rx="52" fill="#111827"/>

  <path d="M92 360 L344 360 L396 412 L144 412 Z" fill="url(#bottomFace)" stroke="#111827" stroke-width="10" stroke-linejoin="round"/>

  <path d="M344 108 L396 148 L396 360 L344 360 Z" fill="url(#rightFace)" stroke="#111827" stroke-width="10" stroke-linejoin="round"/>

  <rect x="92" y="108" width="252" height="252" rx="52" fill="url(#topSheen)" stroke="#111827" stroke-width="12"/>

  <rect x="114" y="130" width="208" height="58" rx="29" fill="#FFF6C8" opacity="0.75"/>

  <text x="218" y="272" text-anchor="middle" font-family="Inter, DM Sans, system-ui, sans-serif" font-size="136" font-weight="900" fill="#111827">11</text>

  <rect x="146" y="296" width="144" height="18" rx="9" fill="#111827"/>

  <path d="M288 296 L326 236 L342 244 L304 304 Z" fill="#FFFFFF" stroke="#111827" stroke-width="8" stroke-linejoin="round"/>
  <circle cx="332" cy="238" r="10" fill="#111827"/>
</svg>
